Coordinates
version=1
nRows=10
nColumns=22
inDegrees=yes

Units are S.I. units (second, meters, Newtons, ...)
If the header above contains a line with 'inDegrees', this indicates whether rotational values are in degrees (yes) or radians (no).

endheader
time	pelvis_tilt	pelvis_list	pelvis_rotation	pelvis_tx	pelvis_ty	pelvis_tz	hip_flexion_r	hip_adduction_r	hip_rotation_r	knee_angle_r	ankle_angle_r	subtalar_angle_r	hip_flexion_l	hip_adduction_l	hip_rotation_l	knee_angle_l	ankle_angle_l	subtalar_angle_l	lumbar_extension	lumbar_bending	lumbar_rotation
      0.01000000	     -3.80169883	     -5.64257924	     -1.91368390	      0.11178324	      1.01741342	      1.34977786	      3.61493756	      3.19620492	      0.77158589	    -11.60463163	      9.04660549	      3.70951873	     -1.31165453	     -8.47463888	    -12.20520412	     -7.20675532	     11.32977596	     -0.27812841	      0.00717239	      2.10348193	     -1.93335979
      0.02000000	     -3.83834531	     -5.61934797	     -1.96415629	      0.11184002	      1.01731444	      1.35004625	      3.78166382	      3.19278979	      0.81868021	    -11.85303254	      9.15306734	      3.71363379	     -1.29766588	     -8.46610068	    -12.24613320	     -7.19260413	     11.33740796	     -0.22170646	      0.00677362	      2.08262439	     -1.91109410
      0.03000000	     -3.93129743	     -5.56358098	     -2.03176745	      0.11186701	      1.01711425	      1.35038858	      4.06494277	      3.16349885	      0.86778200	    -12.20373687	      9.28422928	      3.64868607	     -1.21910220	     -8.42822815	    -12.28733049	     -7.18837963	     11.35516561	     -0.15967804	      0.06054759	      2.02514865	     -1.87533104
      0.04000000	     -4.05145692	     -5.49662352	     -2.09929505	      0.11186210	      1.01686349	      1.35078262	      4.41240002	      3.13040691	      0.93062214	    -12.61669857	      9.40932007	      3.54993985	     -1.09631150	     -8.38485665	    -12.31935688	     -7.20954435	     11.37226823	     -0.08771535	      0.13186464	      1.95626867	     -1.83917732
      0.05000000	     -4.16449375	     -5.41901111	     -2.17012548	      0.11189327	      1.01660604	      1.35122900	      4.77562961	      3.09135016	      0.99279272	    -13.07705211	      9.56800704	      3.43962081	     -0.99340120	     -8.33066505	    -12.36042301	     -7.21187453	     11.39033264	     -0.02145165	      0.19146996	      1.87603398	     -1.81133748
      0.06000000	     -4.25985214	     -5.33003048	     -2.23848830	      0.11198210	      1.01635221	      1.35170843	      5.12996613	      3.04393704	      1.05155969	    -13.56325108	      9.77671396	      3.32891599	     -0.92358897	     -8.26242061	    -12.41601156	     -7.19003322	     11.41324468	      0.03482293	      0.23144515	      1.78563549	     -1.79726998
      0.07000000	     -4.37113298	     -5.22820076	     -2.30304368	      0.11205688	      1.01606754	      1.35224101	      5.51355884	      2.98959124	      1.12316805	    -14.07033104	      9.97006659	      3.21182708	     -0.82215458	     -8.18699803	    -12.45602093	     -7.19353238	     11.42731875	      0.10426885	      0.28276371	      1.67776897	     -1.78608660
      0.08000000	     -4.50046414	     -5.12245270	     -2.35009899	      0.11212648	      1.01575066	      1.35279549	      5.91410837	      2.93560386	      1.20195613	    -14.57362193	     10.14151385	      3.08762700	     -0.68219228	     -8.11364285	    -12.47971535	     -7.22567330	     11.43966710	      0.19559512	      0.34899577	      1.56604346	     -1.79140734
      0.09000000	     -4.57071840	     -5.01654188	     -2.38255873	      0.11231906	      1.01549639	      1.35336616	      6.22611549	      2.87812077	      1.25408455	    -15.04586851	     10.37630155	      2.98497473	     -0.63081759	     -8.03505228	    -12.50945739	     -7.21619828	     11.46975750	      0.26043905	      0.35631940	      1.45577728	     -1.82449153
      0.10000000	     -4.65419763	     -4.90657245	     -2.39586656	      0.11252665	      1.01521860	      1.35395283	      6.53868658	      2.81700603	      1.30336307	    -15.49630148	     10.58641349	      2.88670298	     -0.54954084	     -7.95753629	    -12.51587388	     -7.23063596	     11.48954223	      0.34407967	      0.37612101	      1.34046384	     -1.86943753
